<svg version="1.1" xmlns="http://www.w3.org/2000/svg" style="display: block;" viewBox="-6 0 1416 1416" width="354" height="354">
<path transform="translate(0,0)" fill="rgb(255,255,255)" d="M 686.26 4.27303 C 707.486 2.47945 717.114 5.50852 737.781 7.42375 C 746.677 8.24814 762.244 6.38319 771.504 7.37352 C 782.532 8.55305 793.995 10.4634 804.972 12.111 C 887.592 24.3538 967.252 51.7024 1039.97 92.7894 C 1204.05 186.028 1324.29 340.718 1374.17 522.73 C 1388.89 575.146 1396.87 626.806 1396.94 681.256 C 1396.96 693.424 1400.48 704.571 1400.63 716.663 C 1400.77 729.115 1398.33 741.074 1397.43 753.38 C 1389.55 862.328 1357.5 968.153 1303.62 1063.17 C 1272.29 1118.92 1227.48 1173.51 1181.05 1217.75 C 1174.66 1223.93 1167.07 1229.01 1160.58 1235.01 C 1054.09 1333.34 917.347 1393.67 773.421 1408.65 C 754.483 1410.62 738.603 1405.78 718.252 1411.49 C 699.726 1413.02 690.446 1408.85 673.919 1408.73 C 569.145 1407.97 462.794 1374.78 371.269 1324.65 C 207.971 1234.21 86.8589 1083.09 34.149 904.017 C -20.9669 714.253 -3.15081 535.437 92.7744 362.21 C 187.344 191.604 349.232 68.5717 538.93 23.1374 C 558.666 18.5251 579.076 15.4101 599.105 12.139 C 605.018 11.1733 623.473 7.384 627.837 7.25017 C 649.165 6.59622 664.505 10.5184 686.26 4.27303 z M 922.916 1103.75 C 897.537 1024.25 813.419 1010.85 741.195 1033.72 C 642.602 1064.95 555.3 1162.7 586.977 1271.75 C 603.536 1319.96 662.337 1320.68 704.662 1323.77 C 719.639 1324.87 734.561 1321.05 748.516 1320.05 C 903.496 1309.02 1041.01 1238.11 1149.05 1128.12 C 1156.31 1120.73 1164.4 1113.29 1171.2 1105.35 C 1201.1 1070.28 1226.19 1031.38 1245.81 989.687 C 1321.26 830.638 1335.81 664.75 1276.03 497.629 C 1222.18 346.627 1110.87 223.007 966.317 153.672 C 834.116 90.454 683.798 76.0968 542.02 113.146 C 527.067 117.027 508.899 121.079 494.564 126.228 C 342.69 179.37 218.413 291.104 149.472 436.49 C 86.8777 568.548 72.4418 718.34 108.665 859.922 C 112.568 874.676 116.538 889.858 121.719 904.223 C 144.93 968.574 176.386 1044.06 242.279 1074.71 C 274.881 1089.87 334.864 1104.03 370.823 1103.25 C 397.654 1102.66 430.802 1095.15 456.038 1085.87 C 579.1 1040.61 644.198 936.259 788.38 926.958 C 796.451 926.438 804.632 925.183 812.71 925.16 C 838.162 925.085 865.571 933 888.527 943.578 C 934.361 964.699 973.433 1001.45 990.99 1049.55 C 994.978 1060.47 996.229 1070.91 997.261 1082.38 C 997.932 1089.85 999.161 1097.66 999.061 1105.13 C 998.812 1123.69 992.5 1145 984.693 1161.76 C 968.251 1197.05 941.475 1227.65 904.025 1241.2 C 878.371 1250.48 861.422 1253.08 835.727 1240.95 C 816.911 1232.06 801.697 1216.25 794.925 1196.42 C 788.68 1178.14 790.267 1159 798.789 1141.78 C 807.394 1124.38 820.111 1110.38 838.923 1104.24 C 859.518 1097.52 878.009 1103.22 896.522 1112.9 C 902.046 1115.79 909.988 1120.73 914.216 1125.3 C 917.654 1127.12 916.93 1127.37 920.322 1127.3 C 924.542 1123.33 922.674 1110.94 922.916 1103.75 z"/>
<path transform="translate(0,0)" fill="rgb(255,255,255)" d="M 490.66 343.487 C 513.747 343.147 538.748 343.763 562.002 343.814 L 752.496 343.911 L 868.189 343.806 C 909.305 343.65 950.534 341.899 991.643 348.5 C 1040.63 356.365 1096.24 382.89 1132.42 417.258 C 1157.18 440.786 1185.54 486.6 1195.83 519.088 C 1218.45 588.476 1212.1 664.059 1178.22 728.701 C 1145.35 791.734 1093.89 829.52 1026.65 851.165 C 995.525 861.184 986.295 860.018 955.606 860.482 C 904.5 861.254 879.202 855.063 834.572 831.699 C 786.174 804.426 763.868 767.278 720.921 736.617 C 712.094 736.577 702.941 737.326 694.187 736.624 C 675.11 749.017 666.832 761.681 649.784 775.596 C 640.665 783.039 628.526 794.404 619.528 800.949 C 578.762 830.601 529.813 853.612 478.988 857.277 C 470.317 857.902 458.861 860.527 450.124 860.615 C 444.66 860.67 436.183 857.795 429.92 857.401 C 373.064 853.821 324.36 830.172 283.953 790.429 C 275.733 782.344 264.366 771.569 257.255 762.427 C 225.149 721.148 203.984 661.501 203.353 609.222 C 202.583 545.383 229.798 472.265 274.617 426.567 C 282.922 418.1 293.485 406.937 302.897 399.481 C 344.185 366.77 393.825 350.876 445.447 343.919 C 452.831 342.923 481.549 343.596 490.66 343.487 z M 878.736 766.62 C 906.431 776.568 919.891 778.961 949.208 779.26 C 979.444 779.569 1005.17 778.349 1033.23 764.876 C 1067.4 748.818 1102.91 711.766 1114.74 675.487 C 1130.49 627.198 1134.2 570.754 1111.65 524.041 C 1091.41 483.032 1055.63 451.808 1012.26 437.313 C 975.306 424.74 917.397 428.842 876.95 428.878 L 702.596 428.868 L 527.596 428.859 C 498.646 428.828 458.786 427.658 430.622 429.32 C 379.051 443.336 336.879 463.628 308.441 512.778 C 287.244 553.031 282.322 614.224 294.227 658.188 C 312.662 726.267 372.953 773.151 442.058 775.339 C 522.273 777.879 555.691 758.094 607.882 700.106 C 641.676 662.558 707.759 633.332 754.56 665.182 C 801.862 691.32 831.673 746.114 878.736 766.62 z"/>
<path transform="translate(0,0)" fill="rgb(255,255,255)" d="M 922.916 1103.75 C 926.004 1114.11 925.881 1130.07 927.788 1141.68 C 923.5 1136.42 918.729 1130.27 914.216 1125.3 C 917.654 1127.12 916.93 1127.37 920.322 1127.3 C 924.542 1123.33 922.674 1110.94 922.916 1103.75 z"/>
</svg>
